<?xml version="1.0" encoding="utf-8"?>
<!-- Generator: Adobe Illustrator 27.3.1, SVG Export Plug-In . SVG Version: 6.00 Build 0)  -->
<svg version="1.1" id="Layer_1" xmlns="http://www.w3.org/2000/svg" xmlns:xlink="http://www.w3.org/1999/xlink" x="0px" y="0px"
	 viewBox="0 0 20.8 28.3" style="enable-background:new 0 0 20.8 28.3;" xml:space="preserve">
<style type="text/css">
	.st0{fill:#FFFFFF;}
	.st1{fill:#646CFF;}
</style>
<path class="st0" d="M1.1,21.3V13c0-2.5,1.4-4.6,3.7-5.5c2.3-0.9,4.8-0.5,6.5,1.3c0.4,0.4,0.6,0.8,0.6,1.3c0,0.5-0.2,0.9-0.6,1.3
	C11,11.8,10.5,12,10,12c-0.5,0-0.9-0.2-1.3-0.6c-0.7-0.6-1.6-0.8-2.5-0.5c-0.9,0.4-1.4,1.2-1.4,2.1v8.2c0,0.9,0.5,1.7,1.4,2.1
	c0.8,0.3,1.8,0.2,2.5-0.5c0.4-0.4,0.8-0.6,1.3-0.6c0.5,0,0.9,0.2,1.3,0.6c0.4,0.4,0.6,0.8,0.6,1.3c0,0.5-0.2,0.9-0.6,1.3
	c-1.7,1.7-4.2,2.2-6.5,1.3C2.5,25.9,1.1,23.8,1.1,21.3z"/>
<path class="st1" d="M13.8,1.1H3c-1,0-1.8,0.8-1.8,1.8V5c0,0.9,0.6,1.7,1.5,1.9c1,0.2,2-0.4,2.2-1.4c0-0.1,0-0.1,0-0.2V4.8h9
	c1.2,0,2.3,1,2.3,2.3c0,0,0,0,0,0v8c0,1.2-1,2.3-2.3,2.3H7.9c-0.9,0-1.8,0.6-1.9,1.5c-0.2,1,0.5,2,1.5,2.1c0.1,0,0.2,0,0.3,0h6.1
	c3.3,0,5.9-2.6,5.9-5.9c0,0,0,0,0,0V7C19.8,3.7,17.1,1.1,13.8,1.1C13.8,1.1,13.8,1.1,13.8,1.1L13.8,1.1z"/>
</svg>
