<?xml version="1.0" encoding="utf-8"?>
<!-- Generator: Adobe Illustrator 27.3.1, SVG Export Plug-In . SVG Version: 6.00 Build 0)  -->
<svg version="1.1" id="Layer_1" xmlns="http://www.w3.org/2000/svg" xmlns:xlink="http://www.w3.org/1999/xlink" x="0px" y="0px"
	 viewBox="0 0 105.2 39.7" style="enable-background:new 0 0 105.2 39.7;" xml:space="preserve">
<style type="text/css">
	.st0{fill:#FFFFFF;}
	.st1{fill:#646CFF;}
</style>
<path class="st0" d="M20.6,16.5c0-0.9-0.5-1.7-1.4-2c-0.8-0.3-1.8-0.2-2.4,0.5c-0.4,0.4-0.8,0.5-1.3,0.5c-0.5,0-0.9-0.2-1.3-0.5
	s-0.6-0.8-0.6-1.3s0.2-0.9,0.6-1.3c1.7-1.7,4.2-2.2,6.3-1.3c2.3,0.9,3.6,3,3.6,5.4v12.2c0,1-0.8,1.8-1.8,1.8c0,0,0,0,0,0h-3.9
	c-3,0-5.7-2.2-6.1-5.2c-0.5-3.6,2.4-6.7,5.9-6.7h2.3L20.6,16.5L20.6,16.5z M16.1,24.8c0.1,1.2,1.1,2.1,2.3,2.1h2.2v-4.5h-2.3
	C17,22.4,16,23.4,16.1,24.8z M25,28.9V12.7c0-1,0.8-1.8,1.8-1.8c0,0,0,0,0,0H31c1,0,2,0.2,2.9,0.8c0.9,0.5,1.2,1.6,0.7,2.5
	c-0.5,0.9-1.6,1.2-2.5,0.7c-0.3-0.2-0.7-0.3-1.1-0.3h-2.3v14.3c0,0.9-0.6,1.8-1.5,1.9c-1,0.2-1.9-0.5-2.1-1.5C25,29.1,25,29,25,28.9
	L25,28.9z M34.7,24.6v-7.8c0-3.3,2.7-5.9,5.9-5.9c0,0,0,0,0,0h2.3V4.4c0-0.9,0.6-1.8,1.5-1.9c1-0.2,1.9,0.5,2.1,1.5
	c0,0.1,0,0.2,0,0.3v24.4c0,1-0.8,1.8-1.8,1.8c0,0,0,0,0,0h-4.1C37.3,30.5,34.7,27.9,34.7,24.6C34.7,24.6,34.7,24.6,34.7,24.6
	L34.7,24.6z M38.3,16.8v7.8c0,1.2,1,2.2,2.3,2.2c0,0,0,0,0,0h2.3V14.5h-2.3C39.4,14.5,38.3,15.5,38.3,16.8
	C38.3,16.8,38.3,16.8,38.3,16.8z M48.9,30.7c-0.9-0.1-1.5-1-1.5-1.9V12.6c0-0.9,0.6-1.8,1.5-1.9c1-0.2,1.9,0.5,2.1,1.5
	c0,0.1,0,0.2,0,0.3v16.4C51,30,50.1,30.9,48.9,30.7L48.9,30.7z M72.5,16.5c0-0.9-0.5-1.7-1.4-2c-0.8-0.3-1.8-0.2-2.4,0.5
	c-0.4,0.4-0.8,0.5-1.3,0.5c-0.5,0-0.9-0.2-1.3-0.5c-0.4-0.4-0.6-0.8-0.6-1.3s0.2-0.9,0.6-1.3c1.7-1.7,4.2-2.2,6.3-1.3
	c2.3,0.9,3.6,3,3.6,5.4v12.2c0,1-0.8,1.8-1.8,1.8c0,0,0,0,0,0h-3.9c-3,0-5.7-2.2-6.1-5.2c-0.5-3.6,2.4-6.7,5.9-6.7h2.3V16.5z
	 M68,24.8c0.1,1.2,1.1,2.1,2.3,2.1h2.2v-4.5h-2.3C68.9,22.4,67.9,23.4,68,24.8z M61.8,10.8h-4.1c-3.3,0-5.9,2.6-5.9,5.9c0,0,0,0,0,0
	v7.9c0,3.3,2.7,5.9,5.9,5.9c0,0,0,0,0,0H60v0.6c0,0.9-0.5,1.7-1.4,2.1c-0.8,0.3-1.8,0.1-2.5-0.5c-0.4-0.4-0.8-0.6-1.3-0.6
	c-0.5,0-0.9,0.2-1.3,0.6S53,33.5,53,34c0,0.5,0.2,0.9,0.6,1.3c1.7,1.7,4.2,2.2,6.5,1.3c2.3-0.9,3.6-3,3.6-5.5V12.7
	C63.7,11.7,62.8,10.8,61.8,10.8L61.8,10.8z M57.7,26.9c-1.2,0-2.3-1-2.3-2.2c0,0,0,0,0,0v-7.8c0-1.2,1-2.2,2.3-2.2c0,0,0,0,0,0H60
	v12.3H57.7z M77.1,28.7V12.5c0-1,0.8-1.8,1.8-1.8H83c3.3,0,5.9,2.7,5.9,5.9v12.1c0,1-0.9,1.8-1.8,1.8c-1,0-1.8-0.8-1.8-1.8
	c0,0,0,0,0,0V16.6c0-1.3-1-2.2-2.3-2.2h-2.3v14.4c0,1-0.9,1.8-1.8,1.8C77.9,30.5,77.1,29.7,77.1,28.7C77.1,28.7,77.1,28.7,77.1,28.7
	z"/>
<path class="st0" d="M1.6,24.7v-8.2C1.6,14,3,11.9,5.3,11c2.3-0.9,4.8-0.5,6.5,1.3c0.4,0.4,0.6,0.8,0.6,1.3c0,0.5-0.2,0.9-0.6,1.3
	c-0.4,0.4-0.8,0.6-1.3,0.6c-0.5,0-0.9-0.2-1.3-0.6c-0.7-0.6-1.6-0.8-2.5-0.5c-0.9,0.4-1.4,1.2-1.4,2.1v8.2c0,1,0.5,1.7,1.4,2.1
	c0.8,0.3,1.8,0.2,2.5-0.5c0.4-0.4,0.8-0.6,1.3-0.6c0.5,0,0.9,0.2,1.3,0.6c0.4,0.4,0.6,0.8,0.6,1.3s-0.2,0.9-0.6,1.3
	c-1.7,1.7-4.2,2.2-6.5,1.3C3,29.3,1.6,27.2,1.6,24.7z"/>
<path class="st1" d="M97.7,4.2H49.2c-1,0-1.8,0.8-1.8,1.8c0,0,0,0,0,0v2.1c0,0.9,0.6,1.7,1.5,1.9c1,0.2,2-0.4,2.2-1.4
	c0-0.1,0-0.1,0-0.2V8h46.6c1.2,0,2.3,1,2.3,2.3c0,0,0,0,0,0v8c0,1.2-1,2.3-2.3,2.3c0,0,0,0,0,0h-5.9c-0.9,0-1.8,0.6-1.9,1.5
	c-0.2,1,0.5,2,1.5,2.1c0.1,0,0.2,0,0.3,0h6.1c3.3,0,5.9-2.6,5.9-5.9c0,0,0,0,0,0v-8.1C103.6,6.9,100.9,4.2,97.7,4.2
	C97.7,4.2,97.7,4.2,97.7,4.2z"/>
</svg>
