<svg xmlns="http://www.w3.org/2000/svg" viewBox="0 -960 960 960"><path d="M476.667-132Q332.333-132 230.5-233.833 128.667-335.667 128.667-479.836q0-144.168 101.833-246.499 101.833-102.332 246.167-102.332 86.667 0 156.096 34.982Q702.193-758.703 752-695v-133.667h80v303.666H527.334V-604h163.333Q654-658 600.334-690.667q-53.667-32.667-123.667-32.667-101.834 0-172.584 70.716t-70.75 172.5q0 101.785 70.756 172.618 70.755 70.834 172.597 70.834 75.647 0 139.481-43.667Q680-324 707.334-395.333h108.333Q786-278.667 691.83-205.333 597.659-132 476.667-132Z"/></svg>